<mxfile host="app.diagrams.net" modified="2024-03-05T01:59:11.585Z" agent="Mozilla/5.0 (Macintosh; Intel Mac OS X 10_15_7) AppleWebKit/537.36 (KHTML, like Gecko) Chrome/121.0.0.0 Safari/537.36" etag="uahWDZ_93HBzb8HHzCK5" version="24.0.1" type="device">
  <diagram name="Page-1" id="2YBvvXClWsGukQMizWep">
    <mxGraphModel dx="979" dy="615" grid="1" gridSize="10" guides="1" tooltips="1" connect="1" arrows="1" fold="1" page="1" pageScale="1" pageWidth="850" pageHeight="1100" math="0" shadow="0">
      <root>
        <mxCell id="0" />
        <mxCell id="1" parent="0" />
        <mxCell id="VPaC7qblStcOpj0wphxO-196" value="" style="rounded=0;whiteSpace=wrap;html=1;" vertex="1" parent="1">
          <mxGeometry x="180" y="640" width="420" height="60" as="geometry" />
        </mxCell>
        <mxCell id="VPaC7qblStcOpj0wphxO-195" value="" style="rounded=0;whiteSpace=wrap;html=1;" vertex="1" parent="1">
          <mxGeometry x="190" y="30" width="420" height="60" as="geometry" />
        </mxCell>
        <mxCell id="aM9ryv3xv72pqoxQDRHE-1" value="Client" style="shape=umlLifeline;perimeter=lifelinePerimeter;whiteSpace=wrap;html=1;container=0;dropTarget=0;collapsible=0;recursiveResize=0;outlineConnect=0;portConstraint=eastwest;newEdgeStyle={&quot;edgeStyle&quot;:&quot;elbowEdgeStyle&quot;,&quot;elbow&quot;:&quot;vertical&quot;,&quot;curved&quot;:0,&quot;rounded&quot;:0};" parent="1" vertex="1">
          <mxGeometry x="40" y="40" width="100" height="520" as="geometry" />
        </mxCell>
        <mxCell id="aM9ryv3xv72pqoxQDRHE-2" value="" style="html=1;points=[];perimeter=orthogonalPerimeter;outlineConnect=0;targetShapes=umlLifeline;portConstraint=eastwest;newEdgeStyle={&quot;edgeStyle&quot;:&quot;elbowEdgeStyle&quot;,&quot;elbow&quot;:&quot;vertical&quot;,&quot;curved&quot;:0,&quot;rounded&quot;:0};" parent="aM9ryv3xv72pqoxQDRHE-1" vertex="1">
          <mxGeometry x="45" y="70" width="10" height="90" as="geometry" />
        </mxCell>
        <mxCell id="VPaC7qblStcOpj0wphxO-11" value="" style="html=1;points=[];perimeter=orthogonalPerimeter;outlineConnect=0;targetShapes=umlLifeline;portConstraint=eastwest;newEdgeStyle={&quot;edgeStyle&quot;:&quot;elbowEdgeStyle&quot;,&quot;elbow&quot;:&quot;vertical&quot;,&quot;curved&quot;:0,&quot;rounded&quot;:0};" vertex="1" parent="aM9ryv3xv72pqoxQDRHE-1">
          <mxGeometry x="45" y="190" width="10" height="90" as="geometry" />
        </mxCell>
        <mxCell id="VPaC7qblStcOpj0wphxO-20" value="" style="html=1;points=[];perimeter=orthogonalPerimeter;outlineConnect=0;targetShapes=umlLifeline;portConstraint=eastwest;newEdgeStyle={&quot;edgeStyle&quot;:&quot;elbowEdgeStyle&quot;,&quot;elbow&quot;:&quot;vertical&quot;,&quot;curved&quot;:0,&quot;rounded&quot;:0};" vertex="1" parent="aM9ryv3xv72pqoxQDRHE-1">
          <mxGeometry x="45" y="300" width="10" height="220" as="geometry" />
        </mxCell>
        <mxCell id="aM9ryv3xv72pqoxQDRHE-5" value="Web Server" style="shape=umlLifeline;perimeter=lifelinePerimeter;whiteSpace=wrap;html=1;container=0;dropTarget=0;collapsible=0;recursiveResize=0;outlineConnect=0;portConstraint=eastwest;newEdgeStyle={&quot;edgeStyle&quot;:&quot;elbowEdgeStyle&quot;,&quot;elbow&quot;:&quot;vertical&quot;,&quot;curved&quot;:0,&quot;rounded&quot;:0};" parent="1" vertex="1">
          <mxGeometry x="220" y="40" width="100" height="520" as="geometry" />
        </mxCell>
        <mxCell id="aM9ryv3xv72pqoxQDRHE-6" value="&lt;span style=&quot;color: rgba(0, 0, 0, 0); font-family: monospace; font-size: 0px; text-align: start;&quot;&gt;%3CmxGraphModel%3E%3Croot%3E%3CmxCell%20id%3D%220%22%2F%3E%3CmxCell%20id%3D%221%22%20parent%3D%220%22%2F%3E%3CmxCell%20id%3D%222%22%20value%3D%22%22%20style%3D%22endArrow%3Dclassic%3Bhtml%3D1%3Brounded%3D0%3B%22%20edge%3D%221%22%20parent%3D%221%22%3E%3CmxGeometry%20width%3D%2250%22%20height%3D%2250%22%20relative%3D%221%22%20as%3D%22geometry%22%3E%3CmxPoint%20x%3D%22450%22%20y%3D%22160%22%20as%3D%22sourcePoint%22%2F%3E%3CmxPoint%20x%3D%22410%22%20y%3D%22160%22%20as%3D%22targetPoint%22%2F%3E%3C%2FmxGeometry%3E%3C%2FmxCell%3E%3C%2Froot%3E%3C%2FmxGraphModel%3E&lt;/span&gt;" style="html=1;points=[];perimeter=orthogonalPerimeter;outlineConnect=0;targetShapes=umlLifeline;portConstraint=eastwest;newEdgeStyle={&quot;edgeStyle&quot;:&quot;elbowEdgeStyle&quot;,&quot;elbow&quot;:&quot;vertical&quot;,&quot;curved&quot;:0,&quot;rounded&quot;:0};" parent="aM9ryv3xv72pqoxQDRHE-5" vertex="1">
          <mxGeometry x="45" y="70" width="10" height="90" as="geometry" />
        </mxCell>
        <mxCell id="VPaC7qblStcOpj0wphxO-13" value="&lt;span style=&quot;color: rgba(0, 0, 0, 0); font-family: monospace; font-size: 0px; text-align: start;&quot;&gt;%3CmxGraphModel%3E%3Croot%3E%3CmxCell%20id%3D%220%22%2F%3E%3CmxCell%20id%3D%221%22%20parent%3D%220%22%2F%3E%3CmxCell%20id%3D%222%22%20value%3D%22%22%20style%3D%22endArrow%3Dclassic%3Bhtml%3D1%3Brounded%3D0%3B%22%20edge%3D%221%22%20parent%3D%221%22%3E%3CmxGeometry%20width%3D%2250%22%20height%3D%2250%22%20relative%3D%221%22%20as%3D%22geometry%22%3E%3CmxPoint%20x%3D%22450%22%20y%3D%22160%22%20as%3D%22sourcePoint%22%2F%3E%3CmxPoint%20x%3D%22410%22%20y%3D%22160%22%20as%3D%22targetPoint%22%2F%3E%3C%2FmxGeometry%3E%3C%2FmxCell%3E%3C%2Froot%3E%3C%2FmxGraphModel%3E&lt;/span&gt;&lt;span style=&quot;color: rgba(0, 0, 0, 0); font-family: monospace; font-size: 0px; text-align: start;&quot;&gt;%3CmxGraphModel%3E%3Croot%3E%3CmxCell%20id%3D%220%22%2F%3E%3CmxCell%20id%3D%221%22%20parent%3D%220%22%2F%3E%3CmxCell%20id%3D%222%22%20value%3D%22%22%20style%3D%22endArrow%3Dclassic%3Bhtml%3D1%3Brounded%3D0%3B%22%20edge%3D%221%22%20parent%3D%221%22%3E%3CmxGeometry%20width%3D%2250%22%20height%3D%2250%22%20relative%3D%221%22%20as%3D%22geometry%22%3E%3CmxPoint%20x%3D%22450%22%20y%3D%22160%22%20as%3D%22sourcePoint%22%2F%3E%3CmxPoint%20x%3D%22410%22%20y%3D%22160%22%20as%3D%22targetPoint%22%2F%3E%3C%2FmxGeometry%3E%3C%2FmxCell%3E%3C%2Froot%3E%3C%2FmxGraphModel%3E&lt;/span&gt;" style="html=1;points=[];perimeter=orthogonalPerimeter;outlineConnect=0;targetShapes=umlLifeline;portConstraint=eastwest;newEdgeStyle={&quot;edgeStyle&quot;:&quot;elbowEdgeStyle&quot;,&quot;elbow&quot;:&quot;vertical&quot;,&quot;curved&quot;:0,&quot;rounded&quot;:0};" vertex="1" parent="aM9ryv3xv72pqoxQDRHE-5">
          <mxGeometry x="45" y="190" width="10" height="90" as="geometry" />
        </mxCell>
        <mxCell id="VPaC7qblStcOpj0wphxO-25" value="&lt;span style=&quot;color: rgba(0, 0, 0, 0); font-family: monospace; font-size: 0px; text-align: start;&quot;&gt;%3CmxGraphModel%3E%3Croot%3E%3CmxCell%20id%3D%220%22%2F%3E%3CmxCell%20id%3D%221%22%20parent%3D%220%22%2F%3E%3CmxCell%20id%3D%222%22%20value%3D%22%22%20style%3D%22endArrow%3Dclassic%3Bhtml%3D1%3Brounded%3D0%3B%22%20edge%3D%221%22%20parent%3D%221%22%3E%3CmxGeometry%20width%3D%2250%22%20height%3D%2250%22%20relative%3D%221%22%20as%3D%22geometry%22%3E%3CmxPoint%20x%3D%22450%22%20y%3D%22160%22%20as%3D%22sourcePoint%22%2F%3E%3CmxPoint%20x%3D%22410%22%20y%3D%22160%22%20as%3D%22targetPoint%22%2F%3E%3C%2FmxGeometry%3E%3C%2FmxCell%3E%3C%2Froot%3E%3C%2FmxGraphModel%3E&lt;/span&gt;&lt;span style=&quot;color: rgba(0, 0, 0, 0); font-family: monospace; font-size: 0px; text-align: start;&quot;&gt;%3CmxGraphModel%3E%3Croot%3E%3CmxCell%20id%3D%220%22%2F%3E%3CmxCell%20id%3D%221%22%20parent%3D%220%22%2F%3E%3CmxCell%20id%3D%222%22%20value%3D%22%22%20style%3D%22endArrow%3Dclassic%3Bhtml%3D1%3Brounded%3D0%3B%22%20edge%3D%221%22%20parent%3D%221%22%3E%3CmxGeometry%20width%3D%2250%22%20height%3D%2250%22%20relative%3D%221%22%20as%3D%22geometry%22%3E%3CmxPoint%20x%3D%22450%22%20y%3D%22160%22%20as%3D%22sourcePoint%22%2F%3E%3CmxPoint%20x%3D%22410%22%20y%3D%22160%22%20as%3D%22targetPoint%22%2F%3E%3C%2FmxGeometry%3E%3C%2FmxCell%3E%3C%2Froot%3E%3C%2FmxGraphModel%3E&lt;/span&gt;" style="html=1;points=[];perimeter=orthogonalPerimeter;outlineConnect=0;targetShapes=umlLifeline;portConstraint=eastwest;newEdgeStyle={&quot;edgeStyle&quot;:&quot;elbowEdgeStyle&quot;,&quot;elbow&quot;:&quot;vertical&quot;,&quot;curved&quot;:0,&quot;rounded&quot;:0};" vertex="1" parent="aM9ryv3xv72pqoxQDRHE-5">
          <mxGeometry x="45" y="300" width="10" height="220" as="geometry" />
        </mxCell>
        <mxCell id="VPaC7qblStcOpj0wphxO-128" value="" style="endArrow=classic;html=1;rounded=0;" edge="1" parent="aM9ryv3xv72pqoxQDRHE-5" source="aM9ryv3xv72pqoxQDRHE-6" target="aM9ryv3xv72pqoxQDRHE-6">
          <mxGeometry width="50" height="50" relative="1" as="geometry">
            <mxPoint x="41" y="100" as="sourcePoint" />
            <mxPoint x="41" y="120" as="targetPoint" />
            <Array as="points">
              <mxPoint x="-104" y="100" />
              <mxPoint x="-124" y="110" />
              <mxPoint x="-104" y="120" />
            </Array>
          </mxGeometry>
        </mxCell>
        <mxCell id="aM9ryv3xv72pqoxQDRHE-7" value="&lt;div&gt;/* 요청&lt;br&gt;&lt;/div&gt;" style="html=1;verticalAlign=bottom;endArrow=block;edgeStyle=elbowEdgeStyle;elbow=vertical;curved=0;rounded=0;" parent="1" source="aM9ryv3xv72pqoxQDRHE-2" target="aM9ryv3xv72pqoxQDRHE-6" edge="1">
          <mxGeometry relative="1" as="geometry">
            <mxPoint x="195" y="130" as="sourcePoint" />
            <Array as="points">
              <mxPoint x="180" y="120" />
            </Array>
          </mxGeometry>
        </mxCell>
        <mxCell id="VPaC7qblStcOpj0wphxO-177" value="if : accessToken X" style="edgeLabel;html=1;align=center;verticalAlign=middle;resizable=0;points=[];fontSize=8;" vertex="1" connectable="0" parent="aM9ryv3xv72pqoxQDRHE-7">
          <mxGeometry x="-0.6235" y="-4" relative="1" as="geometry">
            <mxPoint y="3" as="offset" />
          </mxGeometry>
        </mxCell>
        <mxCell id="aM9ryv3xv72pqoxQDRHE-9" value="&lt;font style=&quot;font-size: 11px;&quot;&gt;login.jsp 반환&lt;/font&gt;" style="html=1;verticalAlign=bottom;endArrow=block;edgeStyle=elbowEdgeStyle;elbow=horizontal;curved=0;rounded=0;" parent="1" source="aM9ryv3xv72pqoxQDRHE-6" target="aM9ryv3xv72pqoxQDRHE-2" edge="1">
          <mxGeometry relative="1" as="geometry">
            <mxPoint x="262.5" y="180" as="sourcePoint" />
            <Array as="points">
              <mxPoint x="187.5" y="180" />
            </Array>
            <mxPoint x="97.5" y="180" as="targetPoint" />
          </mxGeometry>
        </mxCell>
        <mxCell id="VPaC7qblStcOpj0wphxO-2" value="Auth Server" style="shape=umlLifeline;perimeter=lifelinePerimeter;whiteSpace=wrap;html=1;container=0;dropTarget=0;collapsible=0;recursiveResize=0;outlineConnect=0;portConstraint=eastwest;newEdgeStyle={&quot;edgeStyle&quot;:&quot;elbowEdgeStyle&quot;,&quot;elbow&quot;:&quot;vertical&quot;,&quot;curved&quot;:0,&quot;rounded&quot;:0};" vertex="1" parent="1">
          <mxGeometry x="640" y="40" width="100" height="520" as="geometry" />
        </mxCell>
        <mxCell id="VPaC7qblStcOpj0wphxO-3" value="&lt;span style=&quot;color: rgba(0, 0, 0, 0); font-family: monospace; font-size: 0px; text-align: start;&quot;&gt;%3CmxGraphModel%3E%3Croot%3E%3CmxCell%20id%3D%220%22%2F%3E%3CmxCell%20id%3D%221%22%20parent%3D%220%22%2F%3E%3CmxCell%20id%3D%222%22%20value%3D%22%26lt%3Bspan%20style%3D%26quot%3Bcolor%3A%20rgba(0%2C%200%2C%200%2C%200)%3B%20font-family%3A%20monospace%3B%20font-size%3A%200px%3B%20text-align%3A%20start%3B%26quot%3B%26gt%3B%253CmxGraphModel%253E%253Croot%253E%253CmxCell%2520id%253D%25220%2522%252F%253E%253CmxCell%2520id%253D%25221%2522%2520parent%253D%25220%2522%252F%253E%253CmxCell%2520id%253D%25222%2522%2520value%253D%2522%2522%2520style%253D%2522endArrow%253Dclassic%253Bhtml%253D1%253Brounded%253D0%253B%2522%2520edge%253D%25221%2522%2520parent%253D%25221%2522%253E%253CmxGeometry%2520width%253D%252250%2522%2520height%253D%252250%2522%2520relative%253D%25221%2522%2520as%253D%2522geometry%2522%253E%253CmxPoint%2520x%253D%2522450%2522%2520y%253D%2522160%2522%2520as%253D%2522sourcePoint%2522%252F%253E%253CmxPoint%2520x%253D%2522410%2522%2520y%253D%2522160%2522%2520as%253D%2522targetPoint%2522%252F%253E%253C%252FmxGeometry%253E%253C%252FmxCell%253E%253C%252Froot%253E%253C%252FmxGraphModel%253E%26lt%3B%2Fspan%26gt%3B%26lt%3Bspan%20style%3D%26quot%3Bcolor%3A%20rgba(0%2C%200%2C%200%2C%200)%3B%20font-family%3A%20monospace%3B%20font-size%3A%200px%3B%20text-align%3A%20start%3B%26quot%3B%26gt%3B%253CmxGraphModel%253E%253Croot%253E%253CmxCell%2520id%253D%25220%2522%252F%253E%253CmxCell%2520id%253D%25221%2522%2520parent%253D%25220%2522%252F%253E%253CmxCell%2520id%253D%25222%2522%2520value%253D%2522%2522%2520style%253D%2522endArrow%253Dclassic%253Bhtml%253D1%253Brounded%253D0%253B%2522%2520edge%253D%25221%2522%2520parent%253D%25221%2522%253E%253CmxGeometry%2520width%253D%252250%2522%2520height%253D%252250%2522%2520relative%253D%25221%2522%2520as%253D%2522geometry%2522%253E%253CmxPoint%2520x%253D%2522450%2522%2520y%253D%2522160%2522%2520as%253D%2522sourcePoint%2522%252F%253E%253CmxPoint%2520x%253D%2522410%2522%2520y%253D%2522160%2522%2520as%253D%2522targetPoint%2522%252F%253E%253C%252FmxGeometry%253E%253C%252FmxCell%253E%253C%252Froot%253E%253C%252FmxGraphModel%253E%26lt%3B%2Fspan%26gt%3B%22%20style%3D%22html%3D1%3Bpoints%3D%5B%5D%3Bperimeter%3DorthogonalPerimeter%3BoutlineConnect%3D0%3BtargetShapes%3DumlLifeline%3BportConstraint%3Deastwest%3BnewEdgeStyle%3D%7B%26quot%3BedgeStyle%26quot%3B%3A%26quot%3BelbowEdgeStyle%26quot%3B%2C%26quot%3Belbow%26quot%3B%3A%26quot%3Bvertical%26quot%3B%2C%26quot%3Bcurved%26quot%3B%3A0%2C%26quot%3Brounded%26quot%3B%3A0%7D%3B%22%20vertex%3D%221%22%20parent%3D%221%22%3E%3CmxGeometry%20x%3D%22265%22%20y%3D%22230%22%20width%3D%2210%22%20height%3D%2290%22%20as%3D%22geometry%22%2F%3E%3C%2FmxCell%3E%3C%2Froot%3E%3C%2FmxGraphModel%3E&lt;/span&gt;&lt;span style=&quot;color: rgba(0, 0, 0, 0); font-family: monospace; font-size: 0px; text-align: start;&quot;&gt;%3CmxGraphModel%3E%3Croot%3E%3CmxCell%20id%3D%220%22%2F%3E%3CmxCell%20id%3D%221%22%20parent%3D%220%22%2F%3E%3CmxCell%20id%3D%222%22%20value%3D%22%26lt%3Bspan%20style%3D%26quot%3Bcolor%3A%20rgba(0%2C%200%2C%200%2C%200)%3B%20font-family%3A%20monospace%3B%20font-size%3A%200px%3B%20text-align%3A%20start%3B%26quot%3B%26gt%3B%253CmxGraphModel%253E%253Croot%253E%253CmxCell%2520id%253D%25220%2522%252F%253E%253CmxCell%2520id%253D%25221%2522%2520parent%253D%25220%2522%252F%253E%253CmxCell%2520id%253D%25222%2522%2520value%253D%2522%2522%2520style%253D%2522endArrow%253Dclassic%253Bhtml%253D1%253Brounded%253D0%253B%2522%2520edge%253D%25221%2522%2520parent%253D%25221%2522%253E%253CmxGeometry%2520width%253D%252250%2522%2520height%253D%252250%2522%2520relative%253D%25221%2522%2520as%253D%2522geometry%2522%253E%253CmxPoint%2520x%253D%2522450%2522%2520y%253D%2522160%2522%2520as%253D%2522sourcePoint%2522%252F%253E%253CmxPoint%2520x%253D%2522410%2522%2520y%253D%2522160%2522%2520as%253D%2522targetPoint%2522%252F%253E%253C%252FmxGeometry%253E%253C%252FmxCell%253E%253C%252Froot%253E%253C%252FmxGraphModel%253E%26lt%3B%2Fspan%26gt%3B%26lt%3Bspan%20style%3D%26quot%3Bcolor%3A%20rgba(0%2C%200%2C%200%2C%200)%3B%20font-family%3A%20monospace%3B%20font-size%3A%200px%3B%20text-align%3A%20start%3B%26quot%3B%26gt%3B%253CmxGraphModel%253E%253Croot%253E%253CmxCell%2520id%253D%25220%2522%252F%253E%253CmxCell%2520id%253D%25221%2522%2520parent%253D%25220%2522%252F%253E%253CmxCell%2520id%253D%25222%2522%2520value%253D%2522%2522%2520style%253D%2522endArrow%253Dclassic%253Bhtml%253D1%253Brounded%253D0%253B%2522%2520edge%253D%25221%2522%2520parent%253D%25221%2522%253E%253CmxGeometry%2520width%253D%252250%2522%2520height%253D%252250%2522%2520relative%253D%25221%2522%2520as%253D%2522geometry%2522%253E%253CmxPoint%2520x%253D%2522450%2522%2520y%253D%2522160%2522%2520as%253D%2522sourcePoint%2522%252F%253E%253CmxPoint%2520x%253D%2522410%2522%2520y%253D%2522160%2522%2520as%253D%2522targetPoint%2522%252F%253E%253C%252FmxGeometry%253E%253C%252FmxCell%253E%253C%252Froot%253E%253C%252FmxGraphModel%253E%26lt%3B%2Fspan%26gt%3B%22%20style%3D%22html%3D1%3Bpoints%3D%5B%5D%3Bperimeter%3DorthogonalPerimeter%3BoutlineConnect%3D0%3BtargetShapes%3DumlLifeline%3BportConstraint%3Deastwest%3BnewEdgeStyle%3D%7B%26quot%3BedgeStyle%26quot%3B%3A%26quot%3BelbowEdgeStyle%26quot%3B%2C%26quot%3Belbow%26quot%3B%3A%26quot%3Bvertical%26quot%3B%2C%26quot%3Bcurved%26quot%3B%3A0%2C%26quot%3Brounded%26quot%3B%3A0%7D%3B%22%20vertex%3D%221%22%20parent%3D%221%22%3E%3CmxGeometry%20x%3D%22265%22%20y%3D%22230%22%20width%3D%2210%22%20height%3D%2290%22%20as%3D%22geometry%22%2F%3E%3C%2FmxCell%3E%3C%2Froot%3E%3C%2FmxGraphModel%3E&lt;/span&gt;&lt;span style=&quot;color: rgba(0, 0, 0, 0); font-family: monospace; font-size: 0px; text-align: start;&quot;&gt;%3CmxGraphModel%3E%3Croot%3E%3CmxCell%20id%3D%220%22%2F%3E%3CmxCell%20id%3D%221%22%20parent%3D%220%22%2F%3E%3CmxCell%20id%3D%222%22%20value%3D%22%26lt%3Bspan%20style%3D%26quot%3Bcolor%3A%20rgba(0%2C%200%2C%200%2C%200)%3B%20font-family%3A%20monospace%3B%20font-size%3A%200px%3B%20text-align%3A%20start%3B%26quot%3B%26gt%3B%253CmxGraphModel%253E%253Croot%253E%253CmxCell%2520id%253D%25220%2522%252F%253E%253CmxCell%2520id%253D%25221%2522%2520parent%253D%25220%2522%252F%253E%253CmxCell%2520id%253D%25222%2522%2520value%253D%2522%2522%2520style%253D%2522endArrow%253Dclassic%253Bhtml%253D1%253Brounded%253D0%253B%2522%2520edge%253D%25221%2522%2520parent%253D%25221%2522%253E%253CmxGeometry%2520width%253D%252250%2522%2520height%253D%252250%2522%2520relative%253D%25221%2522%2520as%253D%2522geometry%2522%253E%253CmxPoint%2520x%253D%2522450%2522%2520y%253D%2522160%2522%2520as%253D%2522sourcePoint%2522%252F%253E%253CmxPoint%2520x%253D%2522410%2522%2520y%253D%2522160%2522%2520as%253D%2522targetPoint%2522%252F%253E%253C%252FmxGeometry%253E%253C%252FmxCell%253E%253C%252Froot%253E%253C%252FmxGraphModel%253E%26lt%3B%2Fspan%26gt%3B%26lt%3Bspan%20style%3D%26quot%3Bcolor%3A%20rgba(0%2C%200%2C%200%2C%200)%3B%20font-family%3A%20monospace%3B%20font-size%3A%200px%3B%20text-align%3A%20start%3B%26quot%3B%26gt%3B%253CmxGraphModel%253E%253Croot%253E%253CmxCell%2520id%253D%25220%2522%252F%253E%253CmxCell%2520id%253D%25221%2522%2520parent%253D%25220%2522%252F%253E%253CmxCell%2520id%253D%25222%2522%2520value%253D%2522%2522%2520style%253D%2522endArrow%253Dclassic%253Bhtml%253D1%253Brounded%253D0%253B%2522%2520edge%253D%25221%2522%2520parent%253D%25221%2522%253E%253CmxGeometry%2520width%253D%252250%2522%2520height%253D%252250%2522%2520relative%253D%25221%2522%2520as%253D%2522geometry%2522%253E%253CmxPoint%2520x%253D%2522450%2522%2520y%253D%2522160%2522%2520as%253D%2522sourcePoint%2522%252F%253E%253CmxPoint%2520x%253D%2522410%2522%2520y%253D%2522160%2522%2520as%253D%2522targetPoint%2522%252F%253E%253C%252FmxGeometry%253E%253C%252FmxCell%253E%253C%252Froot%253E%253C%252FmxGraphModel%253E%26lt%3B%2Fspan%26gt%3B%22%20style%3D%22html%3D1%3Bpoints%3D%5B%5D%3Bperimeter%3DorthogonalPerimeter%3BoutlineConnect%3D0%3BtargetShapes%3DumlLifeline%3BportConstraint%3Deastwest%3BnewEdgeStyle%3D%7B%26quot%3BedgeStyle%26quot%3B%3A%26quot%3BelbowEdgeStyle%26quot%3B%2C%26quot%3Belbow%26quot%3B%3A%26quot%3Bvertical%26quot%3B%2C%26quot%3Bcurved%26quot%3B%3A0%2C%26quot%3Brounded%26quot%3B%3A0%7D%3B%22%20vertex%3D%221%22%20parent%3D%221%22%3E%3CmxGeometry%20x%3D%22265%22%20y%3D%22230%22%20width%3D%2210%22%20height%3D%2290%22%20as%3D%22geometry%22%2F%3E%3C%2FmxCell%3E%3C%2Froot%3E%3C%2FmxGraphModel%3E&lt;/span&gt;" style="html=1;points=[];perimeter=orthogonalPerimeter;outlineConnect=0;targetShapes=umlLifeline;portConstraint=eastwest;newEdgeStyle={&quot;edgeStyle&quot;:&quot;elbowEdgeStyle&quot;,&quot;elbow&quot;:&quot;vertical&quot;,&quot;curved&quot;:0,&quot;rounded&quot;:0};" vertex="1" parent="VPaC7qblStcOpj0wphxO-2">
          <mxGeometry x="45" y="190" width="10" height="90" as="geometry" />
        </mxCell>
        <mxCell id="VPaC7qblStcOpj0wphxO-28" value="&lt;span style=&quot;color: rgba(0, 0, 0, 0); font-family: monospace; font-size: 0px; text-align: start;&quot;&gt;%3CmxGraphModel%3E%3Croot%3E%3CmxCell%20id%3D%220%22%2F%3E%3CmxCell%20id%3D%221%22%20parent%3D%220%22%2F%3E%3CmxCell%20id%3D%222%22%20value%3D%22%26lt%3Bspan%20style%3D%26quot%3Bcolor%3A%20rgba(0%2C%200%2C%200%2C%200)%3B%20font-family%3A%20monospace%3B%20font-size%3A%200px%3B%20text-align%3A%20start%3B%26quot%3B%26gt%3B%253CmxGraphModel%253E%253Croot%253E%253CmxCell%2520id%253D%25220%2522%252F%253E%253CmxCell%2520id%253D%25221%2522%2520parent%253D%25220%2522%252F%253E%253CmxCell%2520id%253D%25222%2522%2520value%253D%2522%2522%2520style%253D%2522endArrow%253Dclassic%253Bhtml%253D1%253Brounded%253D0%253B%2522%2520edge%253D%25221%2522%2520parent%253D%25221%2522%253E%253CmxGeometry%2520width%253D%252250%2522%2520height%253D%252250%2522%2520relative%253D%25221%2522%2520as%253D%2522geometry%2522%253E%253CmxPoint%2520x%253D%2522450%2522%2520y%253D%2522160%2522%2520as%253D%2522sourcePoint%2522%252F%253E%253CmxPoint%2520x%253D%2522410%2522%2520y%253D%2522160%2522%2520as%253D%2522targetPoint%2522%252F%253E%253C%252FmxGeometry%253E%253C%252FmxCell%253E%253C%252Froot%253E%253C%252FmxGraphModel%253E%26lt%3B%2Fspan%26gt%3B%26lt%3Bspan%20style%3D%26quot%3Bcolor%3A%20rgba(0%2C%200%2C%200%2C%200)%3B%20font-family%3A%20monospace%3B%20font-size%3A%200px%3B%20text-align%3A%20start%3B%26quot%3B%26gt%3B%253CmxGraphModel%253E%253Croot%253E%253CmxCell%2520id%253D%25220%2522%252F%253E%253CmxCell%2520id%253D%25221%2522%2520parent%253D%25220%2522%252F%253E%253CmxCell%2520id%253D%25222%2522%2520value%253D%2522%2522%2520style%253D%2522endArrow%253Dclassic%253Bhtml%253D1%253Brounded%253D0%253B%2522%2520edge%253D%25221%2522%2520parent%253D%25221%2522%253E%253CmxGeometry%2520width%253D%252250%2522%2520height%253D%252250%2522%2520relative%253D%25221%2522%2520as%253D%2522geometry%2522%253E%253CmxPoint%2520x%253D%2522450%2522%2520y%253D%2522160%2522%2520as%253D%2522sourcePoint%2522%252F%253E%253CmxPoint%2520x%253D%2522410%2522%2520y%253D%2522160%2522%2520as%253D%2522targetPoint%2522%252F%253E%253C%252FmxGeometry%253E%253C%252FmxCell%253E%253C%252Froot%253E%253C%252FmxGraphModel%253E%26lt%3B%2Fspan%26gt%3B%22%20style%3D%22html%3D1%3Bpoints%3D%5B%5D%3Bperimeter%3DorthogonalPerimeter%3BoutlineConnect%3D0%3BtargetShapes%3DumlLifeline%3BportConstraint%3Deastwest%3BnewEdgeStyle%3D%7B%26quot%3BedgeStyle%26quot%3B%3A%26quot%3BelbowEdgeStyle%26quot%3B%2C%26quot%3Belbow%26quot%3B%3A%26quot%3Bvertical%26quot%3B%2C%26quot%3Bcurved%26quot%3B%3A0%2C%26quot%3Brounded%26quot%3B%3A0%7D%3B%22%20vertex%3D%221%22%20parent%3D%221%22%3E%3CmxGeometry%20x%3D%22265%22%20y%3D%22230%22%20width%3D%2210%22%20height%3D%2290%22%20as%3D%22geometry%22%2F%3E%3C%2FmxCell%3E%3C%2Froot%3E%3C%2FmxGraphModel%3E&lt;/span&gt;&lt;span style=&quot;color: rgba(0, 0, 0, 0); font-family: monospace; font-size: 0px; text-align: start;&quot;&gt;%3CmxGraphModel%3E%3Croot%3E%3CmxCell%20id%3D%220%22%2F%3E%3CmxCell%20id%3D%221%22%20parent%3D%220%22%2F%3E%3CmxCell%20id%3D%222%22%20value%3D%22%26lt%3Bspan%20style%3D%26quot%3Bcolor%3A%20rgba(0%2C%200%2C%200%2C%200)%3B%20font-family%3A%20monospace%3B%20font-size%3A%200px%3B%20text-align%3A%20start%3B%26quot%3B%26gt%3B%253CmxGraphModel%253E%253Croot%253E%253CmxCell%2520id%253D%25220%2522%252F%253E%253CmxCell%2520id%253D%25221%2522%2520parent%253D%25220%2522%252F%253E%253CmxCell%2520id%253D%25222%2522%2520value%253D%2522%2522%2520style%253D%2522endArrow%253Dclassic%253Bhtml%253D1%253Brounded%253D0%253B%2522%2520edge%253D%25221%2522%2520parent%253D%25221%2522%253E%253CmxGeometry%2520width%253D%252250%2522%2520height%253D%252250%2522%2520relative%253D%25221%2522%2520as%253D%2522geometry%2522%253E%253CmxPoint%2520x%253D%2522450%2522%2520y%253D%2522160%2522%2520as%253D%2522sourcePoint%2522%252F%253E%253CmxPoint%2520x%253D%2522410%2522%2520y%253D%2522160%2522%2520as%253D%2522targetPoint%2522%252F%253E%253C%252FmxGeometry%253E%253C%252FmxCell%253E%253C%252Froot%253E%253C%252FmxGraphModel%253E%26lt%3B%2Fspan%26gt%3B%26lt%3Bspan%20style%3D%26quot%3Bcolor%3A%20rgba(0%2C%200%2C%200%2C%200)%3B%20font-family%3A%20monospace%3B%20font-size%3A%200px%3B%20text-align%3A%20start%3B%26quot%3B%26gt%3B%253CmxGraphModel%253E%253Croot%253E%253CmxCell%2520id%253D%25220%2522%252F%253E%253CmxCell%2520id%253D%25221%2522%2520parent%253D%25220%2522%252F%253E%253CmxCell%2520id%253D%25222%2522%2520value%253D%2522%2522%2520style%253D%2522endArrow%253Dclassic%253Bhtml%253D1%253Brounded%253D0%253B%2522%2520edge%253D%25221%2522%2520parent%253D%25221%2522%253E%253CmxGeometry%2520width%253D%252250%2522%2520height%253D%252250%2522%2520relative%253D%25221%2522%2520as%253D%2522geometry%2522%253E%253CmxPoint%2520x%253D%2522450%2522%2520y%253D%2522160%2522%2520as%253D%2522sourcePoint%2522%252F%253E%253CmxPoint%2520x%253D%2522410%2522%2520y%253D%2522160%2522%2520as%253D%2522targetPoint%2522%252F%253E%253C%252FmxGeometry%253E%253C%252FmxCell%253E%253C%252Froot%253E%253C%252FmxGraphModel%253E%26lt%3B%2Fspan%26gt%3B%22%20style%3D%22html%3D1%3Bpoints%3D%5B%5D%3Bperimeter%3DorthogonalPerimeter%3BoutlineConnect%3D0%3BtargetShapes%3DumlLifeline%3BportConstraint%3Deastwest%3BnewEdgeStyle%3D%7B%26quot%3BedgeStyle%26quot%3B%3A%26quot%3BelbowEdgeStyle%26quot%3B%2C%26quot%3Belbow%26quot%3B%3A%26quot%3Bvertical%26quot%3B%2C%26quot%3Bcurved%26quot%3B%3A0%2C%26quot%3Brounded%26quot%3B%3A0%7D%3B%22%20vertex%3D%221%22%20parent%3D%221%22%3E%3CmxGeometry%20x%3D%22265%22%20y%3D%22230%22%20width%3D%2210%22%20height%3D%2290%22%20as%3D%22geometry%22%2F%3E%3C%2FmxCell%3E%3C%2Froot%3E%3C%2FmxGraphModel%3E&lt;/span&gt;&lt;span style=&quot;color: rgba(0, 0, 0, 0); font-family: monospace; font-size: 0px; text-align: start;&quot;&gt;%3CmxGraphModel%3E%3Croot%3E%3CmxCell%20id%3D%220%22%2F%3E%3CmxCell%20id%3D%221%22%20parent%3D%220%22%2F%3E%3CmxCell%20id%3D%222%22%20value%3D%22%26lt%3Bspan%20style%3D%26quot%3Bcolor%3A%20rgba(0%2C%200%2C%200%2C%200)%3B%20font-family%3A%20monospace%3B%20font-size%3A%200px%3B%20text-align%3A%20start%3B%26quot%3B%26gt%3B%253CmxGraphModel%253E%253Croot%253E%253CmxCell%2520id%253D%25220%2522%252F%253E%253CmxCell%2520id%253D%25221%2522%2520parent%253D%25220%2522%252F%253E%253CmxCell%2520id%253D%25222%2522%2520value%253D%2522%2522%2520style%253D%2522endArrow%253Dclassic%253Bhtml%253D1%253Brounded%253D0%253B%2522%2520edge%253D%25221%2522%2520parent%253D%25221%2522%253E%253CmxGeometry%2520width%253D%252250%2522%2520height%253D%252250%2522%2520relative%253D%25221%2522%2520as%253D%2522geometry%2522%253E%253CmxPoint%2520x%253D%2522450%2522%2520y%253D%2522160%2522%2520as%253D%2522sourcePoint%2522%252F%253E%253CmxPoint%2520x%253D%2522410%2522%2520y%253D%2522160%2522%2520as%253D%2522targetPoint%2522%252F%253E%253C%252FmxGeometry%253E%253C%252FmxCell%253E%253C%252Froot%253E%253C%252FmxGraphModel%253E%26lt%3B%2Fspan%26gt%3B%26lt%3Bspan%20style%3D%26quot%3Bcolor%3A%20rgba(0%2C%200%2C%200%2C%200)%3B%20font-family%3A%20monospace%3B%20font-size%3A%200px%3B%20text-align%3A%20start%3B%26quot%3B%26gt%3B%253CmxGraphModel%253E%253Croot%253E%253CmxCell%2520id%253D%25220%2522%252F%253E%253CmxCell%2520id%253D%25221%2522%2520parent%253D%25220%2522%252F%253E%253CmxCell%2520id%253D%25222%2522%2520value%253D%2522%2522%2520style%253D%2522endArrow%253Dclassic%253Bhtml%253D1%253Brounded%253D0%253B%2522%2520edge%253D%25221%2522%2520parent%253D%25221%2522%253E%253CmxGeometry%2520width%253D%252250%2522%2520height%253D%252250%2522%2520relative%253D%25221%2522%2520as%253D%2522geometry%2522%253E%253CmxPoint%2520x%253D%2522450%2522%2520y%253D%2522160%2522%2520as%253D%2522sourcePoint%2522%252F%253E%253CmxPoint%2520x%253D%2522410%2522%2520y%253D%2522160%2522%2520as%253D%2522targetPoint%2522%252F%253E%253C%252FmxGeometry%253E%253C%252FmxCell%253E%253C%252Froot%253E%253C%252FmxGraphModel%253E%26lt%3B%2Fspan%26gt%3B%22%20style%3D%22html%3D1%3Bpoints%3D%5B%5D%3Bperimeter%3DorthogonalPerimeter%3BoutlineConnect%3D0%3BtargetShapes%3DumlLifeline%3BportConstraint%3Deastwest%3BnewEdgeStyle%3D%7B%26quot%3BedgeStyle%26quot%3B%3A%26quot%3BelbowEdgeStyle%26quot%3B%2C%26quot%3Belbow%26quot%3B%3A%26quot%3Bvertical%26quot%3B%2C%26quot%3Bcurved%26quot%3B%3A0%2C%26quot%3Brounded%26quot%3B%3A0%7D%3B%22%20vertex%3D%221%22%20parent%3D%221%22%3E%3CmxGeometry%20x%3D%22265%22%20y%3D%22230%22%20width%3D%2210%22%20height%3D%2290%22%20as%3D%22geometry%22%2F%3E%3C%2FmxCell%3E%3C%2Froot%3E%3C%2FmxGraphModel%3E&lt;/span&gt;" style="html=1;points=[];perimeter=orthogonalPerimeter;outlineConnect=0;targetShapes=umlLifeline;portConstraint=eastwest;newEdgeStyle={&quot;edgeStyle&quot;:&quot;elbowEdgeStyle&quot;,&quot;elbow&quot;:&quot;vertical&quot;,&quot;curved&quot;:0,&quot;rounded&quot;:0};" vertex="1" parent="VPaC7qblStcOpj0wphxO-2">
          <mxGeometry x="45" y="300" width="10" height="90" as="geometry" />
        </mxCell>
        <mxCell id="VPaC7qblStcOpj0wphxO-8" value="[POST] 로그인 정보 전달" style="html=1;verticalAlign=bottom;endArrow=block;edgeStyle=elbowEdgeStyle;elbow=horizontal;curved=0;rounded=0;" edge="1" parent="1">
          <mxGeometry relative="1" as="geometry">
            <mxPoint x="98" y="240" as="sourcePoint" />
            <Array as="points">
              <mxPoint x="183" y="240" />
            </Array>
            <mxPoint x="263" y="240" as="targetPoint" />
          </mxGeometry>
        </mxCell>
        <mxCell id="VPaC7qblStcOpj0wphxO-9" value="" style="html=1;verticalAlign=bottom;endArrow=block;edgeStyle=elbowEdgeStyle;elbow=horizontal;curved=0;rounded=0;" edge="1" parent="1">
          <mxGeometry x="-0.05" y="10" relative="1" as="geometry">
            <mxPoint x="275" y="260" as="sourcePoint" />
            <Array as="points">
              <mxPoint x="365" y="260" />
            </Array>
            <mxPoint x="685" y="260" as="targetPoint" />
            <mxPoint as="offset" />
          </mxGeometry>
        </mxCell>
        <mxCell id="VPaC7qblStcOpj0wphxO-14" value="" style="endArrow=classic;html=1;rounded=0;" edge="1" parent="1">
          <mxGeometry width="50" height="50" relative="1" as="geometry">
            <mxPoint x="685" y="290" as="sourcePoint" />
            <mxPoint x="275" y="290" as="targetPoint" />
          </mxGeometry>
        </mxCell>
        <mxCell id="VPaC7qblStcOpj0wphxO-15" value="클라이언트에게 인증번호 전달 성공" style="edgeLabel;html=1;align=center;verticalAlign=middle;resizable=0;points=[];" vertex="1" connectable="0" parent="VPaC7qblStcOpj0wphxO-14">
          <mxGeometry x="-0.2165" relative="1" as="geometry">
            <mxPoint x="-54" y="-10" as="offset" />
          </mxGeometry>
        </mxCell>
        <mxCell id="VPaC7qblStcOpj0wphxO-17" value="" style="endArrow=classic;html=1;rounded=0;" edge="1" parent="1">
          <mxGeometry width="50" height="50" relative="1" as="geometry">
            <mxPoint x="263.63" y="310" as="sourcePoint" />
            <mxPoint x="96.38" y="310" as="targetPoint" />
          </mxGeometry>
        </mxCell>
        <mxCell id="VPaC7qblStcOpj0wphxO-19" value="&lt;div&gt;&lt;br&gt;&lt;/div&gt;certification.jsp 반환" style="edgeLabel;html=1;align=center;verticalAlign=middle;resizable=0;points=[];" vertex="1" connectable="0" parent="VPaC7qblStcOpj0wphxO-17">
          <mxGeometry x="0.3034" y="1" relative="1" as="geometry">
            <mxPoint x="19" y="-20" as="offset" />
          </mxGeometry>
        </mxCell>
        <mxCell id="VPaC7qblStcOpj0wphxO-23" value="" style="endArrow=classic;html=1;rounded=0;" edge="1" parent="1">
          <mxGeometry width="50" height="50" relative="1" as="geometry">
            <mxPoint x="95" y="360" as="sourcePoint" />
            <mxPoint x="265" y="360" as="targetPoint" />
          </mxGeometry>
        </mxCell>
        <mxCell id="VPaC7qblStcOpj0wphxO-27" value="&lt;font style=&quot;font-size: 11px;&quot;&gt;[POST] 인증번호 전달&lt;/font&gt;" style="text;html=1;align=center;verticalAlign=middle;resizable=0;points=[];autosize=1;strokeColor=none;fillColor=none;" vertex="1" parent="1">
          <mxGeometry x="115" y="334" width="120" height="30" as="geometry" />
        </mxCell>
        <mxCell id="VPaC7qblStcOpj0wphxO-29" value="" style="endArrow=classic;html=1;rounded=0;" edge="1" parent="1">
          <mxGeometry width="50" height="50" relative="1" as="geometry">
            <mxPoint x="275" y="379" as="sourcePoint" />
            <mxPoint x="685" y="379" as="targetPoint" />
          </mxGeometry>
        </mxCell>
        <mxCell id="VPaC7qblStcOpj0wphxO-31" value="&lt;font style=&quot;font-size: 11px;&quot;&gt;인증번호 및 로그인 정보 전달&lt;/font&gt;" style="text;html=1;align=center;verticalAlign=middle;resizable=0;points=[];autosize=1;strokeColor=none;fillColor=none;" vertex="1" parent="1">
          <mxGeometry x="398" y="355" width="150" height="30" as="geometry" />
        </mxCell>
        <mxCell id="VPaC7qblStcOpj0wphxO-39" value="" style="endArrow=classic;html=1;rounded=0;" edge="1" parent="1">
          <mxGeometry width="50" height="50" relative="1" as="geometry">
            <mxPoint x="265" y="549" as="sourcePoint" />
            <mxPoint x="95" y="549" as="targetPoint" />
          </mxGeometry>
        </mxCell>
        <mxCell id="VPaC7qblStcOpj0wphxO-40" value="정적&lt;br&gt;getCoupons.jsp 반환" style="edgeLabel;html=1;align=center;verticalAlign=middle;resizable=0;points=[];" vertex="1" connectable="0" parent="1">
          <mxGeometry x="175" y="520" as="geometry">
            <mxPoint x="4" y="9" as="offset" />
          </mxGeometry>
        </mxCell>
        <mxCell id="VPaC7qblStcOpj0wphxO-71" value="Client" style="shape=umlLifeline;perimeter=lifelinePerimeter;whiteSpace=wrap;html=1;container=0;dropTarget=0;collapsible=0;recursiveResize=0;outlineConnect=0;portConstraint=eastwest;newEdgeStyle={&quot;edgeStyle&quot;:&quot;elbowEdgeStyle&quot;,&quot;elbow&quot;:&quot;vertical&quot;,&quot;curved&quot;:0,&quot;rounded&quot;:0};" vertex="1" parent="1">
          <mxGeometry x="40" y="650" width="100" height="230" as="geometry" />
        </mxCell>
        <mxCell id="VPaC7qblStcOpj0wphxO-72" value="" style="html=1;points=[];perimeter=orthogonalPerimeter;outlineConnect=0;targetShapes=umlLifeline;portConstraint=eastwest;newEdgeStyle={&quot;edgeStyle&quot;:&quot;elbowEdgeStyle&quot;,&quot;elbow&quot;:&quot;vertical&quot;,&quot;curved&quot;:0,&quot;rounded&quot;:0};" vertex="1" parent="VPaC7qblStcOpj0wphxO-71">
          <mxGeometry x="45" y="70" width="10" height="160" as="geometry" />
        </mxCell>
        <mxCell id="VPaC7qblStcOpj0wphxO-75" value="Web Server" style="shape=umlLifeline;perimeter=lifelinePerimeter;whiteSpace=wrap;html=1;container=0;dropTarget=0;collapsible=0;recursiveResize=0;outlineConnect=0;portConstraint=eastwest;newEdgeStyle={&quot;edgeStyle&quot;:&quot;elbowEdgeStyle&quot;,&quot;elbow&quot;:&quot;vertical&quot;,&quot;curved&quot;:0,&quot;rounded&quot;:0};" vertex="1" parent="1">
          <mxGeometry x="220" y="650" width="100" height="230" as="geometry" />
        </mxCell>
        <mxCell id="VPaC7qblStcOpj0wphxO-76" value="&lt;span style=&quot;color: rgba(0, 0, 0, 0); font-family: monospace; font-size: 0px; text-align: start;&quot;&gt;%3CmxGraphModel%3E%3Croot%3E%3CmxCell%20id%3D%220%22%2F%3E%3CmxCell%20id%3D%221%22%20parent%3D%220%22%2F%3E%3CmxCell%20id%3D%222%22%20value%3D%22%22%20style%3D%22endArrow%3Dclassic%3Bhtml%3D1%3Brounded%3D0%3B%22%20edge%3D%221%22%20parent%3D%221%22%3E%3CmxGeometry%20width%3D%2250%22%20height%3D%2250%22%20relative%3D%221%22%20as%3D%22geometry%22%3E%3CmxPoint%20x%3D%22450%22%20y%3D%22160%22%20as%3D%22sourcePoint%22%2F%3E%3CmxPoint%20x%3D%22410%22%20y%3D%22160%22%20as%3D%22targetPoint%22%2F%3E%3C%2FmxGeometry%3E%3C%2FmxCell%3E%3C%2Froot%3E%3C%2FmxGraphModel%3E&lt;/span&gt;" style="html=1;points=[];perimeter=orthogonalPerimeter;outlineConnect=0;targetShapes=umlLifeline;portConstraint=eastwest;newEdgeStyle={&quot;edgeStyle&quot;:&quot;elbowEdgeStyle&quot;,&quot;elbow&quot;:&quot;vertical&quot;,&quot;curved&quot;:0,&quot;rounded&quot;:0};" vertex="1" parent="VPaC7qblStcOpj0wphxO-75">
          <mxGeometry x="45" y="70" width="10" height="160" as="geometry" />
        </mxCell>
        <mxCell id="VPaC7qblStcOpj0wphxO-79" value="&lt;div&gt;&lt;font style=&quot;font-size: 11px;&quot;&gt;/* 요청&lt;/font&gt;&lt;br&gt;&lt;/div&gt;" style="html=1;verticalAlign=bottom;endArrow=block;edgeStyle=elbowEdgeStyle;elbow=horizontal;curved=0;rounded=0;" edge="1" parent="1" source="VPaC7qblStcOpj0wphxO-72" target="VPaC7qblStcOpj0wphxO-76">
          <mxGeometry relative="1" as="geometry">
            <mxPoint x="235" y="740" as="sourcePoint" />
            <Array as="points">
              <mxPoint x="220" y="730" />
            </Array>
          </mxGeometry>
        </mxCell>
        <mxCell id="VPaC7qblStcOpj0wphxO-80" value="&lt;div&gt;정적&lt;/div&gt;getCoupons.jsp 반환" style="html=1;verticalAlign=bottom;endArrow=block;edgeStyle=elbowEdgeStyle;elbow=horizontal;curved=0;rounded=0;" edge="1" parent="1" source="VPaC7qblStcOpj0wphxO-76" target="VPaC7qblStcOpj0wphxO-72">
          <mxGeometry relative="1" as="geometry">
            <mxPoint x="266" y="850" as="sourcePoint" />
            <Array as="points">
              <mxPoint x="250" y="870" />
              <mxPoint x="186" y="870" />
            </Array>
            <mxPoint x="101" y="850" as="targetPoint" />
          </mxGeometry>
        </mxCell>
        <mxCell id="VPaC7qblStcOpj0wphxO-133" value="DB" style="shape=umlLifeline;perimeter=lifelinePerimeter;whiteSpace=wrap;html=1;container=0;dropTarget=0;collapsible=0;recursiveResize=0;outlineConnect=0;portConstraint=eastwest;newEdgeStyle={&quot;edgeStyle&quot;:&quot;elbowEdgeStyle&quot;,&quot;elbow&quot;:&quot;vertical&quot;,&quot;curved&quot;:0,&quot;rounded&quot;:0};" vertex="1" parent="1">
          <mxGeometry x="480" y="40" width="100" height="520" as="geometry" />
        </mxCell>
        <mxCell id="VPaC7qblStcOpj0wphxO-136" value="&lt;span style=&quot;color: rgba(0, 0, 0, 0); font-family: monospace; font-size: 0px; text-align: start;&quot;&gt;%3CmxGraphModel%3E%3Croot%3E%3CmxCell%20id%3D%220%22%2F%3E%3CmxCell%20id%3D%221%22%20parent%3D%220%22%2F%3E%3CmxCell%20id%3D%222%22%20value%3D%22%22%20style%3D%22endArrow%3Dclassic%3Bhtml%3D1%3Brounded%3D0%3B%22%20edge%3D%221%22%20parent%3D%221%22%3E%3CmxGeometry%20width%3D%2250%22%20height%3D%2250%22%20relative%3D%221%22%20as%3D%22geometry%22%3E%3CmxPoint%20x%3D%22450%22%20y%3D%22160%22%20as%3D%22sourcePoint%22%2F%3E%3CmxPoint%20x%3D%22410%22%20y%3D%22160%22%20as%3D%22targetPoint%22%2F%3E%3C%2FmxGeometry%3E%3C%2FmxCell%3E%3C%2Froot%3E%3C%2FmxGraphModel%3E&lt;/span&gt;&lt;span style=&quot;color: rgba(0, 0, 0, 0); font-family: monospace; font-size: 0px; text-align: start;&quot;&gt;%3CmxGraphModel%3E%3Croot%3E%3CmxCell%20id%3D%220%22%2F%3E%3CmxCell%20id%3D%221%22%20parent%3D%220%22%2F%3E%3CmxCell%20id%3D%222%22%20value%3D%22%22%20style%3D%22endArrow%3Dclassic%3Bhtml%3D1%3Brounded%3D0%3B%22%20edge%3D%221%22%20parent%3D%221%22%3E%3CmxGeometry%20width%3D%2250%22%20height%3D%2250%22%20relative%3D%221%22%20as%3D%22geometry%22%3E%3CmxPoint%20x%3D%22450%22%20y%3D%22160%22%20as%3D%22sourcePoint%22%2F%3E%3CmxPoint%20x%3D%22410%22%20y%3D%22160%22%20as%3D%22targetPoint%22%2F%3E%3C%2FmxGeometry%3E%3C%2FmxCell%3E%3C%2Froot%3E%3C%2FmxGraphModel%3E&lt;/span&gt;" style="html=1;points=[];perimeter=orthogonalPerimeter;outlineConnect=0;targetShapes=umlLifeline;portConstraint=eastwest;newEdgeStyle={&quot;edgeStyle&quot;:&quot;elbowEdgeStyle&quot;,&quot;elbow&quot;:&quot;vertical&quot;,&quot;curved&quot;:0,&quot;rounded&quot;:0};" vertex="1" parent="VPaC7qblStcOpj0wphxO-133">
          <mxGeometry x="45" y="400" width="10" height="120" as="geometry" />
        </mxCell>
        <mxCell id="VPaC7qblStcOpj0wphxO-138" value="&lt;font style=&quot;font-size: 11px;&quot;&gt;redirect :/login 요청&amp;nbsp;&lt;/font&gt;" style="text;html=1;align=center;verticalAlign=middle;resizable=0;points=[];autosize=1;strokeColor=none;fillColor=none;" vertex="1" parent="1">
          <mxGeometry x="120" y="138" width="120" height="30" as="geometry" />
        </mxCell>
        <mxCell id="VPaC7qblStcOpj0wphxO-140" value="" style="edgeStyle=elbowEdgeStyle;rounded=0;orthogonalLoop=1;jettySize=auto;html=1;elbow=vertical;curved=0;" edge="1" parent="1" source="VPaC7qblStcOpj0wphxO-28" target="VPaC7qblStcOpj0wphxO-25">
          <mxGeometry relative="1" as="geometry">
            <mxPoint x="685" y="385" as="sourcePoint" />
            <mxPoint x="280" y="410" as="targetPoint" />
            <Array as="points">
              <mxPoint x="400" y="410" />
              <mxPoint x="390" y="400" />
            </Array>
          </mxGeometry>
        </mxCell>
        <mxCell id="VPaC7qblStcOpj0wphxO-141" value="&lt;font style=&quot;font-size: 11px;&quot;&gt;accessToken 할당&lt;/font&gt;" style="text;html=1;align=center;verticalAlign=middle;resizable=0;points=[];autosize=1;strokeColor=none;fillColor=none;" vertex="1" parent="1">
          <mxGeometry x="415" y="386" width="110" height="30" as="geometry" />
        </mxCell>
        <mxCell id="VPaC7qblStcOpj0wphxO-144" value="" style="endArrow=classic;html=1;rounded=0;" edge="1" parent="1" source="VPaC7qblStcOpj0wphxO-25" target="VPaC7qblStcOpj0wphxO-151">
          <mxGeometry width="50" height="50" relative="1" as="geometry">
            <mxPoint x="280" y="460" as="sourcePoint" />
            <mxPoint x="480" y="460" as="targetPoint" />
          </mxGeometry>
        </mxCell>
        <mxCell id="VPaC7qblStcOpj0wphxO-146" value="&lt;font style=&quot;font-size: 11px;&quot;&gt;API /get-coupons 호출&lt;/font&gt;" style="text;html=1;align=center;verticalAlign=middle;resizable=0;points=[];autosize=1;strokeColor=none;fillColor=none;" vertex="1" parent="1">
          <mxGeometry x="270" y="424" width="130" height="30" as="geometry" />
        </mxCell>
        <mxCell id="VPaC7qblStcOpj0wphxO-147" value="Web Container" style="shape=umlLifeline;perimeter=lifelinePerimeter;whiteSpace=wrap;html=1;container=0;dropTarget=0;collapsible=0;recursiveResize=0;outlineConnect=0;portConstraint=eastwest;newEdgeStyle={&quot;edgeStyle&quot;:&quot;elbowEdgeStyle&quot;,&quot;elbow&quot;:&quot;vertical&quot;,&quot;curved&quot;:0,&quot;rounded&quot;:0};" vertex="1" parent="1">
          <mxGeometry x="350" y="40" width="100" height="520" as="geometry" />
        </mxCell>
        <mxCell id="VPaC7qblStcOpj0wphxO-151" value="&lt;span style=&quot;color: rgba(0, 0, 0, 0); font-family: monospace; font-size: 0px; text-align: start;&quot;&gt;%3CmxGraphModel%3E%3Croot%3E%3CmxCell%20id%3D%220%22%2F%3E%3CmxCell%20id%3D%221%22%20parent%3D%220%22%2F%3E%3CmxCell%20id%3D%222%22%20value%3D%22%22%20style%3D%22endArrow%3Dclassic%3Bhtml%3D1%3Brounded%3D0%3B%22%20edge%3D%221%22%20parent%3D%221%22%3E%3CmxGeometry%20width%3D%2250%22%20height%3D%2250%22%20relative%3D%221%22%20as%3D%22geometry%22%3E%3CmxPoint%20x%3D%22450%22%20y%3D%22160%22%20as%3D%22sourcePoint%22%2F%3E%3CmxPoint%20x%3D%22410%22%20y%3D%22160%22%20as%3D%22targetPoint%22%2F%3E%3C%2FmxGeometry%3E%3C%2FmxCell%3E%3C%2Froot%3E%3C%2FmxGraphModel%3E&lt;/span&gt;&lt;span style=&quot;color: rgba(0, 0, 0, 0); font-family: monospace; font-size: 0px; text-align: start;&quot;&gt;%3CmxGraphModel%3E%3Croot%3E%3CmxCell%20id%3D%220%22%2F%3E%3CmxCell%20id%3D%221%22%20parent%3D%220%22%2F%3E%3CmxCell%20id%3D%222%22%20value%3D%22%22%20style%3D%22endArrow%3Dclassic%3Bhtml%3D1%3Brounded%3D0%3B%22%20edge%3D%221%22%20parent%3D%221%22%3E%3CmxGeometry%20width%3D%2250%22%20height%3D%2250%22%20relative%3D%221%22%20as%3D%22geometry%22%3E%3CmxPoint%20x%3D%22450%22%20y%3D%22160%22%20as%3D%22sourcePoint%22%2F%3E%3CmxPoint%20x%3D%22410%22%20y%3D%22160%22%20as%3D%22targetPoint%22%2F%3E%3C%2FmxGeometry%3E%3C%2FmxCell%3E%3C%2Froot%3E%3C%2FmxGraphModel%3E&lt;/span&gt;" style="html=1;points=[];perimeter=orthogonalPerimeter;outlineConnect=0;targetShapes=umlLifeline;portConstraint=eastwest;newEdgeStyle={&quot;edgeStyle&quot;:&quot;elbowEdgeStyle&quot;,&quot;elbow&quot;:&quot;vertical&quot;,&quot;curved&quot;:0,&quot;rounded&quot;:0};" vertex="1" parent="VPaC7qblStcOpj0wphxO-147">
          <mxGeometry x="45" y="400" width="10" height="120" as="geometry" />
        </mxCell>
        <mxCell id="VPaC7qblStcOpj0wphxO-152" value="" style="endArrow=classic;html=1;rounded=0;" edge="1" parent="1" source="VPaC7qblStcOpj0wphxO-151">
          <mxGeometry width="50" height="50" relative="1" as="geometry">
            <mxPoint x="410" y="480" as="sourcePoint" />
            <mxPoint x="525" y="480" as="targetPoint" />
          </mxGeometry>
        </mxCell>
        <mxCell id="VPaC7qblStcOpj0wphxO-154" value="&lt;font style=&quot;font-size: 11px;&quot;&gt;쿠폰 정보 조회&lt;/font&gt;" style="text;html=1;align=center;verticalAlign=middle;resizable=0;points=[];autosize=1;strokeColor=none;fillColor=none;" vertex="1" parent="1">
          <mxGeometry x="421" y="456" width="90" height="30" as="geometry" />
        </mxCell>
        <mxCell id="VPaC7qblStcOpj0wphxO-155" value="" style="endArrow=classic;html=1;rounded=0;entryX=1.038;entryY=0.475;entryDx=0;entryDy=0;entryPerimeter=0;" edge="1" parent="1" source="VPaC7qblStcOpj0wphxO-136">
          <mxGeometry width="50" height="50" relative="1" as="geometry">
            <mxPoint x="525.06" y="518" as="sourcePoint" />
            <mxPoint x="405.00000000000006" y="517" as="targetPoint" />
          </mxGeometry>
        </mxCell>
        <mxCell id="VPaC7qblStcOpj0wphxO-156" value="&lt;font style=&quot;font-size: 11px;&quot;&gt;쿠폰 정보 반환&lt;/font&gt;" style="text;html=1;align=center;verticalAlign=middle;resizable=0;points=[];autosize=1;strokeColor=none;fillColor=none;" vertex="1" parent="1">
          <mxGeometry x="421" y="493" width="90" height="30" as="geometry" />
        </mxCell>
        <mxCell id="VPaC7qblStcOpj0wphxO-157" value="" style="endArrow=classic;html=1;rounded=0;" edge="1" parent="1" source="VPaC7qblStcOpj0wphxO-151" target="VPaC7qblStcOpj0wphxO-25">
          <mxGeometry width="50" height="50" relative="1" as="geometry">
            <mxPoint x="390" y="530" as="sourcePoint" />
            <mxPoint x="272.25" y="530" as="targetPoint" />
            <Array as="points">
              <mxPoint x="360" y="530" />
            </Array>
          </mxGeometry>
        </mxCell>
        <mxCell id="VPaC7qblStcOpj0wphxO-159" value="동적&lt;br&gt;&lt;font style=&quot;font-size: 11px;&quot;&gt;getCoupons.jsp 반환&lt;/font&gt;" style="text;html=1;align=center;verticalAlign=middle;resizable=0;points=[];autosize=1;strokeColor=none;fillColor=none;" vertex="1" parent="1">
          <mxGeometry x="275" y="492" width="120" height="40" as="geometry" />
        </mxCell>
        <mxCell id="VPaC7qblStcOpj0wphxO-160" value="Web Container" style="shape=umlLifeline;perimeter=lifelinePerimeter;whiteSpace=wrap;html=1;container=0;dropTarget=0;collapsible=0;recursiveResize=0;outlineConnect=0;portConstraint=eastwest;newEdgeStyle={&quot;edgeStyle&quot;:&quot;elbowEdgeStyle&quot;,&quot;elbow&quot;:&quot;vertical&quot;,&quot;curved&quot;:0,&quot;rounded&quot;:0};" vertex="1" parent="1">
          <mxGeometry x="350" y="650" width="100" height="230" as="geometry" />
        </mxCell>
        <mxCell id="VPaC7qblStcOpj0wphxO-161" value="&lt;span style=&quot;color: rgba(0, 0, 0, 0); font-family: monospace; font-size: 0px; text-align: start;&quot;&gt;%3CmxGraphModel%3E%3Croot%3E%3CmxCell%20id%3D%220%22%2F%3E%3CmxCell%20id%3D%221%22%20parent%3D%220%22%2F%3E%3CmxCell%20id%3D%222%22%20value%3D%22%22%20style%3D%22endArrow%3Dclassic%3Bhtml%3D1%3Brounded%3D0%3B%22%20edge%3D%221%22%20parent%3D%221%22%3E%3CmxGeometry%20width%3D%2250%22%20height%3D%2250%22%20relative%3D%221%22%20as%3D%22geometry%22%3E%3CmxPoint%20x%3D%22450%22%20y%3D%22160%22%20as%3D%22sourcePoint%22%2F%3E%3CmxPoint%20x%3D%22410%22%20y%3D%22160%22%20as%3D%22targetPoint%22%2F%3E%3C%2FmxGeometry%3E%3C%2FmxCell%3E%3C%2Froot%3E%3C%2FmxGraphModel%3E&lt;/span&gt;&lt;span style=&quot;color: rgba(0, 0, 0, 0); font-family: monospace; font-size: 0px; text-align: start;&quot;&gt;%3CmxGraphModel%3E%3Croot%3E%3CmxCell%20id%3D%220%22%2F%3E%3CmxCell%20id%3D%221%22%20parent%3D%220%22%2F%3E%3CmxCell%20id%3D%222%22%20value%3D%22%22%20style%3D%22endArrow%3Dclassic%3Bhtml%3D1%3Brounded%3D0%3B%22%20edge%3D%221%22%20parent%3D%221%22%3E%3CmxGeometry%20width%3D%2250%22%20height%3D%2250%22%20relative%3D%221%22%20as%3D%22geometry%22%3E%3CmxPoint%20x%3D%22450%22%20y%3D%22160%22%20as%3D%22sourcePoint%22%2F%3E%3CmxPoint%20x%3D%22410%22%20y%3D%22160%22%20as%3D%22targetPoint%22%2F%3E%3C%2FmxGeometry%3E%3C%2FmxCell%3E%3C%2Froot%3E%3C%2FmxGraphModel%3E&lt;/span&gt;" style="html=1;points=[];perimeter=orthogonalPerimeter;outlineConnect=0;targetShapes=umlLifeline;portConstraint=eastwest;newEdgeStyle={&quot;edgeStyle&quot;:&quot;elbowEdgeStyle&quot;,&quot;elbow&quot;:&quot;vertical&quot;,&quot;curved&quot;:0,&quot;rounded&quot;:0};" vertex="1" parent="VPaC7qblStcOpj0wphxO-160">
          <mxGeometry x="45" y="110" width="10" height="120" as="geometry" />
        </mxCell>
        <mxCell id="VPaC7qblStcOpj0wphxO-166" value="DB" style="shape=umlLifeline;perimeter=lifelinePerimeter;whiteSpace=wrap;html=1;container=0;dropTarget=0;collapsible=0;recursiveResize=0;outlineConnect=0;portConstraint=eastwest;newEdgeStyle={&quot;edgeStyle&quot;:&quot;elbowEdgeStyle&quot;,&quot;elbow&quot;:&quot;vertical&quot;,&quot;curved&quot;:0,&quot;rounded&quot;:0};" vertex="1" parent="1">
          <mxGeometry x="480" y="650" width="100" height="230" as="geometry" />
        </mxCell>
        <mxCell id="VPaC7qblStcOpj0wphxO-167" value="&lt;span style=&quot;color: rgba(0, 0, 0, 0); font-family: monospace; font-size: 0px; text-align: start;&quot;&gt;%3CmxGraphModel%3E%3Croot%3E%3CmxCell%20id%3D%220%22%2F%3E%3CmxCell%20id%3D%221%22%20parent%3D%220%22%2F%3E%3CmxCell%20id%3D%222%22%20value%3D%22%22%20style%3D%22endArrow%3Dclassic%3Bhtml%3D1%3Brounded%3D0%3B%22%20edge%3D%221%22%20parent%3D%221%22%3E%3CmxGeometry%20width%3D%2250%22%20height%3D%2250%22%20relative%3D%221%22%20as%3D%22geometry%22%3E%3CmxPoint%20x%3D%22450%22%20y%3D%22160%22%20as%3D%22sourcePoint%22%2F%3E%3CmxPoint%20x%3D%22410%22%20y%3D%22160%22%20as%3D%22targetPoint%22%2F%3E%3C%2FmxGeometry%3E%3C%2FmxCell%3E%3C%2Froot%3E%3C%2FmxGraphModel%3E&lt;/span&gt;&lt;span style=&quot;color: rgba(0, 0, 0, 0); font-family: monospace; font-size: 0px; text-align: start;&quot;&gt;%3CmxGraphModel%3E%3Croot%3E%3CmxCell%20id%3D%220%22%2F%3E%3CmxCell%20id%3D%221%22%20parent%3D%220%22%2F%3E%3CmxCell%20id%3D%222%22%20value%3D%22%22%20style%3D%22endArrow%3Dclassic%3Bhtml%3D1%3Brounded%3D0%3B%22%20edge%3D%221%22%20parent%3D%221%22%3E%3CmxGeometry%20width%3D%2250%22%20height%3D%2250%22%20relative%3D%221%22%20as%3D%22geometry%22%3E%3CmxPoint%20x%3D%22450%22%20y%3D%22160%22%20as%3D%22sourcePoint%22%2F%3E%3CmxPoint%20x%3D%22410%22%20y%3D%22160%22%20as%3D%22targetPoint%22%2F%3E%3C%2FmxGeometry%3E%3C%2FmxCell%3E%3C%2Froot%3E%3C%2FmxGraphModel%3E&lt;/span&gt;" style="html=1;points=[];perimeter=orthogonalPerimeter;outlineConnect=0;targetShapes=umlLifeline;portConstraint=eastwest;newEdgeStyle={&quot;edgeStyle&quot;:&quot;elbowEdgeStyle&quot;,&quot;elbow&quot;:&quot;vertical&quot;,&quot;curved&quot;:0,&quot;rounded&quot;:0};" vertex="1" parent="VPaC7qblStcOpj0wphxO-166">
          <mxGeometry x="45" y="110" width="10" height="120" as="geometry" />
        </mxCell>
        <mxCell id="VPaC7qblStcOpj0wphxO-168" value="" style="endArrow=classic;html=1;rounded=0;" edge="1" parent="1" source="VPaC7qblStcOpj0wphxO-76" target="VPaC7qblStcOpj0wphxO-161">
          <mxGeometry width="50" height="50" relative="1" as="geometry">
            <mxPoint x="320" y="788" as="sourcePoint" />
            <mxPoint x="370" y="738" as="targetPoint" />
            <Array as="points">
              <mxPoint x="320" y="790" />
            </Array>
          </mxGeometry>
        </mxCell>
        <mxCell id="VPaC7qblStcOpj0wphxO-170" value="&lt;font style=&quot;font-size: 11px;&quot;&gt;API /get-coupons 호출&lt;/font&gt;" style="text;html=1;align=center;verticalAlign=middle;resizable=0;points=[];autosize=1;strokeColor=none;fillColor=none;" vertex="1" parent="1">
          <mxGeometry x="271" y="766" width="130" height="30" as="geometry" />
        </mxCell>
        <mxCell id="VPaC7qblStcOpj0wphxO-171" style="edgeStyle=elbowEdgeStyle;rounded=0;orthogonalLoop=1;jettySize=auto;html=1;elbow=vertical;curved=0;" edge="1" parent="1" target="VPaC7qblStcOpj0wphxO-167">
          <mxGeometry relative="1" as="geometry">
            <mxPoint x="406" y="800" as="sourcePoint" />
            <mxPoint x="520" y="800" as="targetPoint" />
          </mxGeometry>
        </mxCell>
        <mxCell id="VPaC7qblStcOpj0wphxO-172" value="&lt;font style=&quot;font-size: 11px;&quot;&gt;쿠폰 정보 조회&lt;/font&gt;" style="text;html=1;align=center;verticalAlign=middle;resizable=0;points=[];autosize=1;strokeColor=none;fillColor=none;" vertex="1" parent="1">
          <mxGeometry x="420" y="776" width="90" height="30" as="geometry" />
        </mxCell>
        <mxCell id="VPaC7qblStcOpj0wphxO-173" style="edgeStyle=elbowEdgeStyle;rounded=0;orthogonalLoop=1;jettySize=auto;html=1;elbow=vertical;curved=0;" edge="1" parent="1">
          <mxGeometry relative="1" as="geometry">
            <mxPoint x="525" y="819.5" as="sourcePoint" />
            <mxPoint x="406" y="819.5" as="targetPoint" />
          </mxGeometry>
        </mxCell>
        <mxCell id="VPaC7qblStcOpj0wphxO-174" value="&lt;font style=&quot;font-size: 11px;&quot;&gt;쿠폰 정보 반환&lt;/font&gt;" style="text;html=1;align=center;verticalAlign=middle;resizable=0;points=[];autosize=1;strokeColor=none;fillColor=none;" vertex="1" parent="1">
          <mxGeometry x="420" y="797" width="90" height="30" as="geometry" />
        </mxCell>
        <mxCell id="VPaC7qblStcOpj0wphxO-175" value="&lt;font style=&quot;font-size: 11px;&quot;&gt;동적&lt;br&gt;getCoupons.jsp 반환&lt;/font&gt;" style="text;html=1;align=center;verticalAlign=middle;resizable=0;points=[];autosize=1;strokeColor=none;fillColor=none;" vertex="1" parent="1">
          <mxGeometry x="275" y="813" width="120" height="40" as="geometry" />
        </mxCell>
        <mxCell id="VPaC7qblStcOpj0wphxO-176" value="" style="endArrow=classic;html=1;rounded=0;" edge="1" parent="1" source="VPaC7qblStcOpj0wphxO-161" target="VPaC7qblStcOpj0wphxO-76">
          <mxGeometry width="50" height="50" relative="1" as="geometry">
            <mxPoint x="425" y="838" as="sourcePoint" />
            <mxPoint x="315" y="838" as="targetPoint" />
            <Array as="points">
              <mxPoint x="340" y="850" />
            </Array>
          </mxGeometry>
        </mxCell>
        <mxCell id="VPaC7qblStcOpj0wphxO-178" value="if : accessToken O" style="edgeLabel;html=1;align=center;verticalAlign=middle;resizable=0;points=[];fontSize=8;" vertex="1" connectable="0" parent="1">
          <mxGeometry x="130" y="735" as="geometry" />
        </mxCell>
        <mxCell id="VPaC7qblStcOpj0wphxO-186" value="Auth Server" style="shape=umlLifeline;perimeter=lifelinePerimeter;whiteSpace=wrap;html=1;container=0;dropTarget=0;collapsible=0;recursiveResize=0;outlineConnect=0;portConstraint=eastwest;newEdgeStyle={&quot;edgeStyle&quot;:&quot;elbowEdgeStyle&quot;,&quot;elbow&quot;:&quot;vertical&quot;,&quot;curved&quot;:0,&quot;rounded&quot;:0};" vertex="1" parent="1">
          <mxGeometry x="630" y="650" width="100" height="230" as="geometry" />
        </mxCell>
        <mxCell id="VPaC7qblStcOpj0wphxO-191" value="" style="endArrow=classic;html=1;rounded=0;" edge="1" parent="1">
          <mxGeometry width="50" height="50" relative="1" as="geometry">
            <mxPoint x="270" y="748" as="sourcePoint" />
            <mxPoint x="270" y="748" as="targetPoint" />
            <Array as="points" />
          </mxGeometry>
        </mxCell>
        <mxCell id="VPaC7qblStcOpj0wphxO-192" value="&lt;font style=&quot;font-size: 11px;&quot;&gt;redirect :/getCoupons 요청&amp;nbsp;&lt;/font&gt;" style="text;html=1;align=center;verticalAlign=middle;resizable=0;points=[];autosize=1;strokeColor=none;fillColor=none;" vertex="1" parent="1">
          <mxGeometry x="115" y="745" width="150" height="30" as="geometry" />
        </mxCell>
        <mxCell id="VPaC7qblStcOpj0wphxO-193" value="로그인 정보로 문자 발송 API 호출" style="edgeLabel;html=1;align=center;verticalAlign=middle;resizable=0;points=[];" vertex="1" connectable="0" parent="1">
          <mxGeometry x="465" y="246" as="geometry">
            <mxPoint x="3" y="2" as="offset" />
          </mxGeometry>
        </mxCell>
        <mxCell id="VPaC7qblStcOpj0wphxO-162" value="" style="endArrow=classic;html=1;rounded=0;entryX=-0.046;entryY=0.133;entryDx=0;entryDy=0;entryPerimeter=0;" edge="1" parent="1" source="VPaC7qblStcOpj0wphxO-76" target="VPaC7qblStcOpj0wphxO-170">
          <mxGeometry width="50" height="50" relative="1" as="geometry">
            <mxPoint x="261" y="748" as="sourcePoint" />
            <mxPoint x="261" y="770" as="targetPoint" />
            <Array as="points">
              <mxPoint x="116" y="748" />
              <mxPoint x="96" y="760" />
              <mxPoint x="116" y="770" />
            </Array>
          </mxGeometry>
        </mxCell>
      </root>
    </mxGraphModel>
  </diagram>
</mxfile>
